<?xml version="1.0" encoding="utf-8"?>
<!-- Generator: Adobe Illustrator 27.8.1, SVG Export Plug-In . SVG Version: 6.00 Build 0)  -->
<svg version="1.1" id="Camada_2_00000122708091233151419850000002987531943041796276_"
	 xmlns="http://www.w3.org/2000/svg" xmlns:xlink="http://www.w3.org/1999/xlink" x="0px" y="0px" viewBox="0 0 384.9 65"
	 style="enable-background:new 0 0 384.9 65;" xml:space="preserve">
<style type="text/css">
	.st0{fill:#1D1D1B;}
	.st1{fill:#FEE310;}
	.st2{fill:#1897D4;}
	.st3{fill:#7BAB2F;}
	.st4{fill:#E9418D;}
	.st5{fill:#EB5E24;}
</style>
<path class="st0" d="M68.6,45.6V0H92c10.4,0,17,6.5,17,14.7S102.4,29,92,29H79.7v16.5L68.6,45.6L68.6,45.6z M90.3,21.3
	c6.4,0,9-2.8,9-6.8c0-3.8-2.6-6.6-9-6.6H79.7v13.4H90.3z"/>
<path class="st0" d="M139.1,45.6l-3.4-9.4h-19.6l-3.8,9.4h-11.8l19-45.5h12.9l18.7,45.5H139.1z M125.9,10.2L125.9,10.2L119,28.3
	h13.5L125.9,10.2z"/>
<path class="st0" d="M235.4,23.1c0-14.4,8.2-23.1,24.5-23.1s25.4,8.7,25.4,23.3s-9,22.2-25.4,22.2S235.4,37.5,235.4,23.1z
	 M274.3,23.3c0-10.1-5.1-15.4-14.4-15.4s-13.6,5.3-13.6,15.4s4.4,14.6,13.6,14.6C267.9,37.9,274.3,33.4,274.3,23.3z"/>
<path class="st0" d="M319.6,45.6V33.8c0-4.4-1.9-6.1-8.3-6.1h-11.8v17.8h-10.8V0h27c9.8,0,16.3,5.6,16.3,13.2c0,4.9-2.8,9-7.9,10.6
	c4.7,1.3,6.5,3.6,6.5,8.9v12.9H319.6z M299.5,7.9V20h13.9c5.9,0,8.2-2.5,8.2-6s-2.2-6.1-7.8-6.1L299.5,7.9L299.5,7.9z"/>
<path class="st0" d="M372.8,45.6l-3.4-9.4h-20.6l-3.8,9.4h-11.8l19-45.5h13.9l18.7,45.5L372.8,45.6L372.8,45.6z M359.6,10.2
	L359.6,10.2l-7.9,18.1h14.5L359.6,10.2z"/>
<path class="st0" d="M207.3,0h-9.9V8h8.4c10.6,0,14.8,4.1,14.8,14.4s-4.2,15.5-13.8,15.5h-9.4v7.7H209c13.8,0,23-9.4,23-23.2
	S221.7,0,207.3,0z"/>
<polygon class="st0" points="198.4,8 198.4,0 198.4,0 188,0 188,29.3 166.9,0 155.1,0 155.1,45.6 165.4,45.6 165.4,15 188.1,45.6 
	189.7,45.6 198.4,45.6 198.4,37.9 "/>
<polygon class="st1" points="262.5,49.8 201.1,49.8 191,65 252.4,65 "/>
<polygon class="st2" points="135,49.8 68.6,49.8 68.6,65 124.9,65 "/>
<polygon class="st3" points="198.7,49.8 137.4,49.8 127.3,65 188.6,65 "/>
<polygon class="st4" points="384.9,49.8 328.5,49.8 318.5,65 384.9,65 "/>
<polygon class="st5" points="326.2,49.8 264.8,49.8 254.7,65 316.1,65 "/>
<g>
	<polygon class="st0" points="10.7,43.2 0,43.2 0,65 21.8,65 21.8,54.3 10.7,54.3 	"/>
	<polygon class="st0" points="21.8,10.7 21.8,0 0,0 0,21.8 10.7,21.8 10.7,10.7 	"/>
	<polygon class="st0" points="43.2,54.3 43.2,65 65,65 65,43.2 54.3,43.2 54.3,54.3 	"/>
	<polygon class="st0" points="54.3,21.8 65,21.8 65,0 43.2,0 43.2,10.7 54.3,10.7 	"/>
</g>
<rect x="14.2" y="14.2" class="st0" width="36.7" height="36.7"/>
</svg>
