<?xml version="1.0" encoding="utf-8"?>
<!-- Generator: Adobe Illustrator 27.8.1, SVG Export Plug-In . SVG Version: 6.00 Build 0)  -->
<svg version="1.1" id="Camada_2_00000014600746712215090370000000309827697650660025_"
	 xmlns="http://www.w3.org/2000/svg" xmlns:xlink="http://www.w3.org/1999/xlink" x="0px" y="0px" viewBox="0 0 316.3 66.6"
	 style="enable-background:new 0 0 316.3 66.6;" xml:space="preserve">
<style type="text/css">
	.st0{fill:#1D1D1B;}
	.st1{fill:#7C7C7B;}
	.st2{fill:#3C3C3B;}
	.st3{fill:#5C5C5B;}
	.st4{fill:#B2B2B2;}
	.st5{fill:#999998;}
</style>
<path class="st0" d="M0,47.1V1.5h23.4c10.4,0,17,6.5,17,14.7s-6.6,14.3-17,14.3H11.1v16.5L0,47.1L0,47.1z M21.7,22.8
	c6.4,0,9-2.8,9-6.8c0-3.8-2.6-6.6-9-6.6H11.1v13.4C11.1,22.8,21.7,22.8,21.7,22.8z"/>
<path class="st0" d="M70.5,47.1l-3.4-9.4H47.5l-3.8,9.4H32L51,1.5h12.9l18.7,45.5C82.6,47.1,70.5,47.1,70.5,47.1z M57.3,11.8
	L57.3,11.8l-6.9,18.1h13.5L57.3,11.8z"/>
<path class="st0" d="M251,47.1V35.3c0-4.4-1.9-6.1-8.3-6.1h-11.8v17.8h-10.8V1.5h27c9.8,0,16.3,5.6,16.3,13.2c0,4.9-2.8,9-7.9,10.6
	c4.7,1.3,6.5,3.6,6.5,8.9v12.9L251,47.1L251,47.1z M230.9,9.4v12.1h13.9c5.9,0,8.2-2.5,8.2-6s-2.2-6.1-7.8-6.1L230.9,9.4L230.9,9.4z
	"/>
<path class="st0" d="M304.2,47.1l-3.4-9.4h-20.6l-3.8,9.4h-11.8l19-45.5h13.9l18.7,45.5H304.2L304.2,47.1z M291,11.8L291,11.8
	l-7.9,18.1h14.5L291,11.8z"/>
<path class="st0" d="M138.7,1.5h-9.9v7.9h8.4c10.6,0,14.8,4.1,14.8,14.4s-4.2,15.5-13.8,15.5h-9.4v7.7h11.6c13.8,0,23-9.4,23-23.2
	S153.1,1.5,138.7,1.5z"/>
<polygon class="st0" points="129.8,9.5 129.8,1.5 129.8,1.5 119.4,1.5 119.4,30.8 98.2,1.5 86.5,1.5 86.5,47.1 96.8,47.1 96.8,16.5 
	119.5,47.1 121.1,47.1 129.8,47.1 129.8,39.4 "/>
<g>
	<polygon class="st1" points="193.9,51.3 132.5,51.3 122.4,66.5 183.8,66.5 	"/>
	<polygon class="st2" points="66.4,51.3 0,51.3 0,66.5 56.3,66.5 	"/>
	<polygon class="st3" points="130.1,51.3 68.8,51.3 58.7,66.5 120,66.5 	"/>
	<polygon class="st4" points="316.3,51.3 260,51.3 249.9,66.5 316.3,66.5 	"/>
	<polygon class="st5" points="257.6,51.3 196.2,51.3 186.1,66.5 247.5,66.5 	"/>
</g>
<g>
	<g>
		<polygon class="st0" points="176,31.8 168.5,31.8 168.5,47.1 183.8,47.1 183.8,39.6 176,39.6 		"/>
		<polygon class="st0" points="183.8,9 183.8,1.5 168.5,1.5 168.5,16.8 176,16.8 176,9 		"/>
		<polygon class="st0" points="198.7,39.6 198.7,47.1 214,47.1 214,31.8 206.6,31.8 206.6,39.6 		"/>
		<polygon class="st0" points="206.6,16.8 214,16.8 214,1.5 198.7,1.5 198.7,9 206.6,9 		"/>
	</g>
	<rect x="178.4" y="11.5" class="st0" width="25.7" height="25.7"/>
</g>
</svg>
