<?xml version="1.0" encoding="UTF-8"?>
<svg id="Camada_2" data-name="Camada 2" xmlns="http://www.w3.org/2000/svg" viewBox="0 0 396 66">
  <defs>
    <style>
      .cls-1 {
        font-family: CoolveticaRg-Regular, Coolvetica;
        font-size: 12px;
      }

      .cls-1, .cls-2 {
        fill: #0e1111;
      }

      .cls-2 {
        stroke-width: 0px;
      }
    </style>
  </defs>
  <g id="Camada_1-2" data-name="Camada 1">
    <g>
      <path class="cls-2" d="m68.6,44.83V0h23.44C102.44,0,109.08,6.41,109.08,14.52s-6.64,14.04-17.04,14.04h-12.32v16.27h-11.12Zm21.68-23.9c6.4,0,9.04-2.77,9.04-6.68,0-3.71-2.64-6.48-9.04-6.48h-10.56v13.17h10.56Z"/>
      <path class="cls-2" d="m139.08,44.83l-3.36-9.25h-19.6l-3.76,9.25h-11.76L119.56,0h12.88l18.72,44.83h-12.08Zm-13.2-34.77h-.08l-6.8,17.82h13.52l-6.64-17.82Z"/>
      <path class="cls-2" d="m234.42,22.76c0-14.23,8.2-22.76,24.52-22.76s25.36,8.54,25.36,22.95-9.04,21.88-25.36,21.88-24.52-7.9-24.52-22.07Zm38.92.19c0-9.93-5.12-15.18-14.4-15.18s-13.56,5.25-13.56,15.18,4.36,14.35,13.56,14.35c8,0,14.4-4.43,14.4-14.35Z"/>
      <path class="cls-2" d="m318.62,44.92v-11.55c0-4.32-1.92-6.01-8.32-6.01h-11.84v17.55h-10.8V.09h26.96c9.84,0,16.32,5.54,16.32,12.96,0,4.79-2.8,8.84-7.92,10.4,4.72,1.28,6.48,3.51,6.48,8.78v12.69h-10.88Zm-20.16-37.07v11.95h13.92c5.92,0,8.16-2.5,8.16-5.94s-2.24-6.01-7.76-6.01h-14.32Z"/>
      <path class="cls-2" d="m371.78,44.92l-3.36-9.25h-20.6l-3.76,9.25h-11.76L351.26.09h13.88l18.72,44.83h-12.08Zm-13.2-34.77h-.08l-7.8,17.82h14.52l-6.64-17.82Z"/>
      <path class="cls-2" d="m207.29,0h-9.92v7.82h8.4c10.64,0,14.8,4.05,14.8,14.18s-4.16,15.26-13.84,15.26h-9.36v7.58h11.6c13.76,0,22.96-9.25,22.96-22.89S221.69,0,207.29,0Z"/>
      <polygon class="cls-2" points="198.37 7.82 198.37 0 198.37 0 187.97 0 187.97 28.83 166.85 0 155.09 0 155.09 44.83 165.41 44.83 165.41 14.72 188.13 44.83 189.73 44.83 198.37 44.83 198.37 37.25 198.37 7.82"/>
    </g>
    <g>
      <g>
        <polygon class="cls-2" points="10.66 43.16 0 43.16 0 65.01 21.84 65.01 21.84 54.35 10.66 54.35 10.66 43.16"/>
        <polygon class="cls-2" points="21.84 10.66 21.84 0 0 0 0 21.84 10.66 21.84 10.66 10.66 21.84 10.66"/>
        <polygon class="cls-2" points="43.16 54.35 43.16 65.01 65.01 65.01 65.01 43.16 54.35 43.16 54.35 54.35 43.16 54.35"/>
        <polygon class="cls-2" points="54.35 21.84 65.01 21.84 65.01 0 43.16 0 43.16 10.66 54.35 10.66 54.35 21.84"/>
      </g>
      <rect class="cls-2" x="14.18" y="14.18" width="36.66" height="36.66"/>
    </g>
    <g>
      <path class="cls-2" d="m68.48,66.08v-16.31h4.43v16.31h-4.43Z"/>
      <path class="cls-2" d="m87.61,66.08l-9.05-10.96v10.96h-4.11v-16.31h4.69l8.42,10.49v-10.49h4.14v16.31h-4.08Z"/>
      <path class="cls-2" d="m93.28,66.08v-16.31h4.43v16.31h-4.43Z"/>
      <path class="cls-2" d="m105.01,66.08v-13.46h-6.38v-2.85h17.21v2.85h-6.41v13.46h-4.43Z"/>
      <path class="cls-2" d="m116.9,66.08v-16.31h4.43v16.31h-4.43Z"/>
      <path class="cls-2" d="m137.55,66.08l-1.34-3.37h-7.81l-1.5,3.37h-4.69l7.55-16.31h5.13l7.46,16.31h-4.81Zm-5.26-12.65h-.03l-2.71,6.49h5.39l-2.65-6.49Z"/>
      <path class="cls-2" d="m143.74,66.08v-13.46h-6.38v-2.85h17.21v2.85h-6.41v13.46h-4.43Z"/>
      <path class="cls-2" d="m155.62,66.08v-16.31h4.43v16.31h-4.43Z"/>
      <path class="cls-2" d="m168.12,66.08l-7.17-16.31h4.72l4.62,11.45,4.59-11.45h4.59l-7.17,16.31h-4.18Z"/>
      <path class="cls-2" d="m180.49,66.08v-16.31h15.56v2.85h-11.25v3.49h10.36v2.87h-10.36v4.2h11.76v2.9h-16.07Z"/>
    </g>
    <text class="cls-1" transform="translate(378.87 10.92)"><tspan x="0" y="0">TM</tspan></text>
  </g>
</svg>