<?xml version="1.0" encoding="UTF-8"?>
<svg id="Camada_2" data-name="Camada 2" xmlns="http://www.w3.org/2000/svg" viewBox="0 0 324.24 65.06">
  <defs>
    <style>
      .cls-1 {
        fill: #e9418d;
      }

      .cls-1, .cls-2, .cls-3, .cls-4, .cls-5, .cls-6 {
        stroke-width: 0px;
      }

      .cls-2 {
        fill: #eb5e24;
      }

      .cls-3 {
        fill: #1897d4;
      }

      .cls-4 {
        fill: #7bab2f;
      }

      .cls-7 {
        font-family: CoolveticaRg-Regular, Coolvetica;
        font-size: 12px;
      }

      .cls-7, .cls-5 {
        fill: #1d1d1b;
      }

      .cls-6 {
        fill: #fee310;
      }
    </style>
  </defs>
  <g id="Camada_1-2" data-name="Camada 1">
    <g>
      <path class="cls-5" d="m0,45.59V.05h23.44c10.4,0,17.04,6.51,17.04,14.74s-6.64,14.26-17.04,14.26h-12.32v16.53H0Zm21.68-24.28c6.4,0,9.04-2.81,9.04-6.79,0-3.77-2.64-6.58-9.04-6.58h-10.56v13.37h10.56Z"/>
      <path class="cls-5" d="m70.48,45.59l-3.36-9.4h-19.6l-3.76,9.4h-11.76L50.96.05h12.88l18.72,45.54h-12.08Zm-13.2-35.32h-.08l-6.8,18.1h13.52l-6.64-18.1Z"/>
      <path class="cls-5" d="m251.03,45.59v-11.73c0-4.39-1.92-6.1-8.32-6.1h-11.84v17.83h-10.8V.05h26.96c9.84,0,16.32,5.62,16.32,13.17,0,4.87-2.8,8.98-7.92,10.56,4.72,1.3,6.48,3.57,6.48,8.91v12.89h-10.88Zm-20.16-37.65v12.14h13.92c5.92,0,8.16-2.54,8.16-6.03s-2.24-6.1-7.76-6.1h-14.32Z"/>
      <path class="cls-5" d="m304.18,45.59l-3.36-9.4h-20.6l-3.76,9.4h-11.76L283.66.05h13.88l18.72,45.54h-12.08Zm-13.2-35.32h-.08l-7.8,18.1h14.52l-6.64-18.1Z"/>
      <path class="cls-5" d="m139.69.05h-9.92v7.94h8.4c10.64,0,14.8,4.11,14.8,14.4s-4.16,15.5-13.84,15.5h-9.36v7.7h11.6c13.76,0,22.96-9.4,22.96-23.25S154.09.05,139.69.05Z"/>
      <polygon class="cls-5" points="129.77 7.99 129.77 .05 129.77 .05 119.37 .05 119.37 29.34 98.25 .05 86.49 .05 86.49 45.59 96.81 45.59 96.81 15 119.53 45.59 121.13 45.59 129.77 45.59 129.77 37.89 129.77 7.99"/>
    </g>
    <g>
      <polygon class="cls-6" points="193.85 49.85 132.5 49.85 122.41 65.06 183.77 65.06 193.85 49.85"/>
      <polygon class="cls-3" points="66.39 49.85 0 49.85 0 65.06 56.31 65.06 66.39 49.85"/>
      <polygon class="cls-4" points="130.12 49.85 68.77 49.85 58.69 65.06 120.04 65.06 130.12 49.85"/>
      <polygon class="cls-1" points="316.26 49.85 259.95 49.85 249.87 65.06 316.26 65.06 316.26 49.85"/>
      <polygon class="cls-2" points="257.58 49.85 196.23 49.85 186.14 65.06 247.5 65.06 257.58 49.85"/>
    </g>
    <polygon class="cls-5" points="175.96 30.29 168.49 30.29 168.49 45.59 183.8 45.59 183.8 38.12 175.96 38.12 175.96 30.29"/>
    <polygon class="cls-5" points="183.8 7.52 183.8 .05 168.49 .05 168.49 15.35 175.96 15.35 175.96 7.52 183.8 7.52"/>
    <polygon class="cls-5" points="198.73 38.12 198.73 45.59 214.03 45.59 214.03 30.29 206.56 30.29 206.56 38.12 198.73 38.12"/>
    <polygon class="cls-5" points="206.56 15.35 214.03 15.35 214.03 .05 198.73 .05 198.73 7.52 206.56 7.52 206.56 15.35"/>
    <rect class="cls-5" x="178.42" y="9.98" width="25.68" height="25.68"/>
    <text class="cls-7" transform="translate(309.25 9.98)"><tspan x="0" y="0">TM</tspan></text>
  </g>
</svg>